<svg xmlns="http://www.w3.org/2000/svg" xmlns:xlink="http://www.w3.org/1999/xlink" viewBox="0 0 313.93 313.93"><defs><style>.cls-1{fill:url(#linear-gradient);}</style><linearGradient id="linear-gradient" x1="63.12" y1="202.62" x2="361.08" y2="104.1" gradientUnits="userSpaceOnUse"><stop offset="0" stop-color="#006de1"/><stop offset="1" stop-color="#4f20d2"/></linearGradient></defs><g id="Layer_2" data-name="Layer 2"><g id="Layer_1-2" data-name="Layer 1"><path class="cls-1" d="M268,46A157,157,0,0,0,.07,152.31c-2.6,88.87,70.53,161.62,159.44,161.62h103a51.37,51.37,0,0,0,51.38-51.37V157A156.44,156.44,0,0,0,268,46ZM155.22,57.09a84.74,84.74,0,0,1,69.5,133,.16.16,0,0,1-.23,0L87.91,90.61a.16.16,0,0,1,0-.23A84.61,84.61,0,0,1,155.22,57.09Zm5.13,202.65A99.88,99.88,0,0,1,78.43,102.88a.17.17,0,0,1,.23,0L239.73,220.26a.16.16,0,0,1,0,.23A99.69,99.69,0,0,1,160.35,259.74Z"/></g></g></svg>