<svg xmlns="http://www.w3.org/2000/svg" xmlns:xlink="http://www.w3.org/1999/xlink" viewBox="0 0 642.86 164.2"><defs><style>.cls-1{fill:url(#linear-gradient);}.cls-2{fill:#231f20;}</style><linearGradient id="linear-gradient" x1="33.02" y1="105.98" x2="188.86" y2="54.45" gradientUnits="userSpaceOnUse"><stop offset="0" stop-color="#006de1"/><stop offset="1" stop-color="#4f20d2"/></linearGradient></defs><g id="Layer_2" data-name="Layer 2"><g id="Layer_1-2" data-name="Layer 1"><path class="cls-1" d="M140.15,24A82.1,82.1,0,0,0,0,79.66c-1.35,46.49,36.9,84.54,83.4,84.54h53.9a26.88,26.88,0,0,0,26.87-26.87V82.1A81.86,81.86,0,0,0,140.15,24Zm-59,5.82a44.33,44.33,0,0,1,36.35,69.59.09.09,0,0,1-.12,0L46,47.39a.08.08,0,0,1,0-.12A44.25,44.25,0,0,1,81.19,29.86Zm2.68,106A52.25,52.25,0,0,1,41,53.81a.08.08,0,0,1,.12,0l84.25,61.41a.11.11,0,0,1,0,.13A52.17,52.17,0,0,1,83.87,135.86Z"/><path class="cls-2" d="M284.38,105.28c4.8-8.3,7.23-19.11,7.23-32.14,0-12.39-2.17-22.78-6.45-30.88A41.75,41.75,0,0,0,266.53,24c-8-4-17.65-6-28.73-6s-20.61,2-28.65,6a41.72,41.72,0,0,0-18.71,18.31C186.17,50.35,184,60.74,184,73.14s2.17,22.67,6.44,30.81a41.65,41.65,0,0,0,18.71,18.39c8,4,17.68,6,28.65,6h2.53a4.69,4.69,0,0,1,3.44,1.42l14.42,15a4.65,4.65,0,0,0,3.37,1.44h16.62a4.67,4.67,0,0,0,3.25-8l-11.41-11a4.65,4.65,0,0,1,.62-7.21A43.16,43.16,0,0,0,284.38,105.28Zm-17.6-15.46a28.51,28.51,0,0,1-5.95,10.61,24.77,24.77,0,0,1-9.6,6.42,42.27,42.27,0,0,1-26.86,0,24.77,24.77,0,0,1-9.6-6.42,27.55,27.55,0,0,1-5.86-10.59,50.57,50.57,0,0,1-2-14.88V71.63a52,52,0,0,1,2-15.11,27.56,27.56,0,0,1,5.86-10.66,24.92,24.92,0,0,1,9.6-6.42,42.27,42.27,0,0,1,26.86,0,24.77,24.77,0,0,1,9.6,6.42,28.46,28.46,0,0,1,5.95,10.67,50.17,50.17,0,0,1,2.06,15.1V75A48.72,48.72,0,0,1,266.78,89.82Z"/><path d="M301.26,139.53V26.07a4.67,4.67,0,0,1,4.67-4.66h13.94a4.66,4.66,0,0,1,4.66,4.66V119.3a4.67,4.67,0,0,0,4.66,4.67h52.25a4.66,4.66,0,0,1,4.66,4.66v10.9a4.66,4.66,0,0,1-4.66,4.66H305.93A4.67,4.67,0,0,1,301.26,139.53Z"/><path d="M395.86,139.53V26.07a4.67,4.67,0,0,1,4.67-4.66h13.94a4.66,4.66,0,0,1,4.66,4.66V139.53a4.66,4.66,0,0,1-4.66,4.66H400.53A4.67,4.67,0,0,1,395.86,139.53Z"/><path d="M430.67,139.53V26.07a4.67,4.67,0,0,1,4.67-4.66h15.15a4.65,4.65,0,0,1,3.77,1.93L505.31,93.9a35.31,35.31,0,0,1,2.15,2.95c.83,1.25,1.61,2.48,2.33,3.67a16.23,16.23,0,0,1,1.43,2.86h.89V26.07a4.67,4.67,0,0,1,4.67-4.66h13a4.66,4.66,0,0,1,4.66,4.66V139.53a4.66,4.66,0,0,1-4.66,4.66h-15a4.67,4.67,0,0,1-3.79-1.94L459.85,71.17q-1.44-2.16-3.31-5.28c-1.26-2.09-2.12-3.55-2.6-4.39h-.89v78a4.67,4.67,0,0,1-4.67,4.66h-13A4.67,4.67,0,0,1,430.67,139.53Z"/><path d="M546,139.53V26.07a4.66,4.66,0,0,1,4.66-4.66h86.43a4.66,4.66,0,0,1,4.66,4.66V36.61a4.67,4.67,0,0,1-4.66,4.67H574a4.65,4.65,0,0,0-4.66,4.66V66.86A4.65,4.65,0,0,0,574,71.52h55.28a4.67,4.67,0,0,1,4.67,4.67V86.73a4.67,4.67,0,0,1-4.67,4.66H574a4.66,4.66,0,0,0-4.66,4.67v23.6a4.65,4.65,0,0,0,4.66,4.66h64.23a4.67,4.67,0,0,1,4.67,4.67v10.54a4.67,4.67,0,0,1-4.67,4.66h-87.5A4.66,4.66,0,0,1,546,139.53Z"/></g></g></svg>